<svg width="123" height="108" viewBox="0 0 123 108" fill="none" xmlns="http://www.w3.org/2000/svg">
<g clip-path="url(#clip0_607_5)">
<path d="M88.4201 68.75C87.3055 72.6319 85.7133 76.3604 83.6801 79.85H93.5701C93.9978 80.1102 94.4499 80.3279 94.9201 80.5V80.5C96.0275 80.9103 97.2207 81.0338 98.3886 80.859C99.5566 80.6841 100.661 80.2166 101.6 79.5L104.32 77.65C103.116 80.3156 101.694 82.8776 100.07 85.31C96.4554 90.6745 91.8373 95.2893 86.4701 98.9C83.7566 100.724 80.8772 102.287 77.8701 103.57C74.7904 104.893 71.5838 105.898 68.3001 106.57C61.6079 107.89 54.7222 107.89 48.0301 106.57C44.8036 105.918 41.651 104.944 38.6201 103.66L38.4601 103.6C35.454 102.315 32.5748 100.751 29.8601 98.93C27.1803 97.1299 24.6819 95.0735 22.4001 92.79C21.4001 91.79 20.4601 90.79 19.5501 89.69C20.9943 88.4486 22.5102 87.2933 24.0901 86.23C24.8434 87.1033 25.6234 87.9433 26.4301 88.75C28.4426 90.7725 30.65 92.5913 33.0201 94.18C35.4501 95.8001 38.0243 97.1926 40.7101 98.34L40.8401 98.4C43.5133 99.5286 46.2943 100.383 49.1401 100.95C49.8501 101.09 50.5801 101.22 51.3101 101.32C45.2475 96.2959 39.8685 90.5 35.3101 84.08H27.3101C30.3101 82.18 33.6501 80.33 36.9601 78.59C37.2101 79.02 37.4701 79.44 37.7401 79.86H56.0001V69.62L57.4001 69.03C58.0625 70.3012 59.1135 71.3277 60.4001 71.96V79.85H78.5701C82.9101 73.04 85.2501 66.18 85.5701 59.28L88.4501 68.75H88.4201ZM51.3501 52.45C52.0301 50.28 53.9201 48.54 56.6601 46.78L47.3001 35.84C46.6701 35.29 46.8301 34.84 47.4201 34.45L50.5301 33.12C50.7805 33.0408 51.0452 33.0168 51.3059 33.0496C51.5665 33.0824 51.817 33.1712 52.0401 33.31L65.6301 40.16L81.6301 30.91L59.5101 3.40997C58.9401 2.77997 59.0201 2.28997 59.9101 1.96997L64.9101 -0.0300293L98.1501 21.46L110.15 15.63C114.72 13.63 118.66 13.31 121.15 14.8C121.732 15.0392 122.22 15.4613 122.542 16.0024C122.863 16.5436 122.999 17.1745 122.93 17.8C122.98 20.8 120.47 24.04 116.04 26.8L103.57 31.66L102.57 71.19L98.1101 74.19C97.3401 74.74 96.8901 74.54 96.6901 73.71L86.3701 40L69.7301 48L67.7301 63C67.7163 63.2693 67.6439 63.5324 67.5178 63.7707C67.3917 64.0091 67.215 64.2171 67.0001 64.38L64.1701 66.2C63.5201 66.46 63.0601 66.34 62.9701 65.51L59.2101 51.61C56.2101 52.89 53.6901 53.47 51.5101 52.79C51.3101 52.73 51.2901 52.64 51.3501 52.45ZM47.1501 45.52C33.9301 52.52 16.2501 63.89 9.75006 70.52C-11.5099 92.41 5.08006 109.47 29.9201 102C22.1401 100.85 16.0501 99.28 12.6701 97.06C-1.75994 87.58 44.6701 67.12 55.5301 62.64L54.6801 59.49C52.9717 59.6449 51.2495 59.4649 49.6101 58.96L49.0001 58.69C48.1927 58.3912 47.4583 57.9235 46.8461 57.3182C46.2339 56.7129 45.758 55.9839 45.4501 55.18L45.3201 54.83C44.7837 53.4649 44.7588 51.9519 45.2501 50.57C45.7541 48.937 46.5728 47.4185 47.6601 46.1L47.1701 45.52H47.1501ZM8.00006 63.11C7.76983 61.0815 7.65631 59.0415 7.66006 57C7.65692 53.5952 7.9919 50.1985 8.66006 46.86C9.30343 43.6326 10.2752 40.4796 11.5601 37.45L11.6201 37.3C12.9124 34.2924 14.4791 31.4102 16.3001 28.69C18.0942 26.0117 20.1474 23.5164 22.4301 21.24C24.7119 18.9564 27.2103 16.9001 29.8901 15.1C32.6048 13.2785 35.484 11.715 38.4901 10.43C41.5703 9.10862 44.7767 8.10346 48.0601 7.42997C49.9994 7.04418 51.9593 6.77039 53.9301 6.60997C54.154 6.95955 54.4012 7.29364 54.6701 7.60997L60.3901 14.74V29.86H70.6101L65.4201 32.86L56.0001 28.12V14.71C50.6901 19.2622 45.8524 24.3378 41.5601 29.86H42.8901C41.8249 30.7764 41.0673 31.9983 40.7201 33.36C40.6433 33.622 40.5865 33.8894 40.5501 34.16V34.25H38.4801C36.0773 37.908 34.1485 41.8562 32.7401 46C30.9301 47.09 29.1101 48.2 27.3101 49.34C28.4817 44.0063 30.5078 38.897 33.3101 34.21H19.5401C18.5429 35.9275 17.6512 37.7041 16.8701 39.53L16.8101 39.66C15.6737 42.3442 14.8191 45.1392 14.2601 48C13.8124 50.2489 13.5383 52.529 13.4401 54.82H19.0001C15.1897 57.3908 11.5179 60.1613 8.00006 63.12V63.11ZM85.5101 59.21H74.7001L75.2901 54.81H84.1901L85.5201 59.21H85.5101ZM81.0001 84.07C76.4371 90.4893 71.0587 96.288 65.0001 101.32C65.7301 101.21 66.4501 101.08 67.1701 100.94C70.0579 100.357 72.879 99.4829 75.59 98.33C78.2768 97.1848 80.8513 95.7921 83.2801 94.17C85.6501 92.5813 87.8575 90.7625 89.8701 88.74C91.3585 87.2859 92.7389 85.7251 94.0001 84.07H81.0001ZM60.3801 99.5C66.0394 94.963 71.1535 89.7851 75.6201 84.07H60.3801V99.5ZM56.0001 84.07H40.7501C45.2224 89.7833 50.3396 94.9609 56.0001 99.5V84.07ZM36.1601 29.86C40.6655 23.5423 45.8869 17.7672 51.7201 12.65C50.8601 12.77 50.0101 12.91 49.1701 13.08C46.2762 13.6515 43.4506 14.5264 40.7401 15.69C38.0543 16.8373 35.4801 18.2299 33.0501 19.85C30.68 21.4386 28.4726 23.2575 26.4601 25.28V25.28C25.0213 26.7077 23.6846 28.2348 22.4601 29.85L36.1601 29.86Z" fill="white"/>
</g>
<defs>
<clipPath id="clip0_607_5">
<rect width="122.88" height="107.54" fill="white"/>
</clipPath>
</defs>
</svg>
